<?xml version="1.0" encoding="utf-8"?>
<!-- Generator: Adobe Illustrator 25.2.0, SVG Export Plug-In . SVG Version: 6.00 Build 0)  -->
<svg version="1.1" id="레이어_1" xmlns="http://www.w3.org/2000/svg" xmlns:xlink="http://www.w3.org/1999/xlink" x="0px"
	 y="0px" viewBox="0 0 84 84" style="enable-background:new 0 0 84 84;" xml:space="preserve">
<style type="text/css">
	.st0{fill:#222222;}
	.st1{fill:none;stroke:#FFFFFF;stroke-width:1.5;stroke-linecap:round;stroke-linejoin:round;}
</style>
<g transform="translate(-677 -4720)">
	<circle class="st0" cx="719" cy="4762" r="42"/>
	<path class="st1" d="M710.9,4759L710.9,4759l0,2.3h19.2v-2.3h0c0.2-1.9,1.6-3.4,3.4-3.7c0,0-0.1-0.1-0.1-0.1v-2.1
		c0-2.8-2.3-5.1-5.1-5.1h-15.7c-2.8,0-5.1,2.3-5.1,5.1v2.1c0,0,0,0.1,0,0.1C709.4,4755.7,710.8,4757.2,710.9,4759z"/>
	<rect x="711" y="4761.3" class="st1" width="19.2" height="6.5"/>
	<path class="st1" d="M734.2,4755.3c-2.1,0-3.9,1.6-4.1,3.7h0v8.8H711v-8.8h0c-0.2-1.8-1.5-3.3-3.4-3.7c-0.2,0-0.5-0.1-0.7-0.1
		c-2.2,0-4.1,1.8-4.1,4.1c0,1.8,1.2,3.4,3,3.9v12.7h29.5v-12.7c2.2-0.6,3.4-2.9,2.8-5C737.6,4756.5,736,4755.3,734.2,4755.3
		L734.2,4755.3z"/>
</g>
</svg>
