<?xml version="1.0" encoding="utf-8"?>
<!-- Generator: Adobe Illustrator 25.2.0, SVG Export Plug-In . SVG Version: 6.00 Build 0)  -->
<svg version="1.1" id="레이어_1" xmlns="http://www.w3.org/2000/svg" xmlns:xlink="http://www.w3.org/1999/xlink" x="0px"
	 y="0px" viewBox="0 0 84 84" style="enable-background:new 0 0 84 84;" xml:space="preserve">
<style type="text/css">
	.st0{fill:#222222;}
	.st1{fill:#222222;stroke:#FFFFFF;stroke-width:1.5;stroke-linecap:round;stroke-linejoin:round;}
	.st2{fill:none;stroke:#FFFFFF;stroke-width:1.5;stroke-linecap:round;stroke-linejoin:round;}
</style>
<g transform="translate(-792 -4600)">
	<circle class="st0" cx="834" cy="4642" r="42"/>
	<path class="st1" d="M843.4,4638.7l4.8,14c0.6,1.6-0.3,3.4-1.9,3.9c0,0,0,0,0,0l0,0c-1.6,0.6-3.4-0.3-3.9-1.9l-4.8-13.9
		L843.4,4638.7z"/>
	<line class="st2" x1="844.6" y1="4642.1" x2="838.9" y2="4644.1"/>
	<line class="st2" x1="840.6" y1="4639.4" x2="837.6" y2="4630.7"/>
	<path class="st1" d="M825,4638.7l-4.8,14c-0.6,1.6,0.3,3.4,1.9,3.9l0,0c1.6,0.6,3.4-0.3,3.9-1.9l4.8-13.9L825,4638.7z"/>
	<line class="st2" x1="823.8" y1="4642.1" x2="829.5" y2="4644.1"/>
	<line class="st2" x1="827.8" y1="4639.4" x2="830.9" y2="4630.7"/>
	<path class="st1" d="M837.8,4631.6c0,2-1.6,3.6-3.6,3.6s-3.6-1.6-3.6-3.6c0-2,1.6-3.6,3.6-3.6h0
		C836.2,4628,837.8,4629.6,837.8,4631.6z"/>
</g>
</svg>
