<?xml version="1.0" encoding="utf-8"?>
<!-- Generator: Adobe Illustrator 25.2.0, SVG Export Plug-In . SVG Version: 6.00 Build 0)  -->
<svg version="1.1" id="레이어_1" xmlns="http://www.w3.org/2000/svg" xmlns:xlink="http://www.w3.org/1999/xlink" x="0px"
	 y="0px" viewBox="0 0 84 84" style="enable-background:new 0 0 84 84;" xml:space="preserve">
<style type="text/css">
	.st0{fill:#222222;}
	.st1{fill:none;stroke:#FFFFFF;stroke-width:1.5;stroke-linecap:round;stroke-linejoin:round;}
	.st2{fill:#222222;stroke:#FFFFFF;stroke-width:1.5;stroke-linecap:round;stroke-linejoin:round;}
	.st3{fill:#222222;stroke:#FFFFFF;stroke-width:1.5;stroke-linecap:round;stroke-linejoin:round;stroke-miterlimit:4;}
	.st4{fill:none;stroke:#FFFFFF;stroke-width:1.5;stroke-linecap:round;stroke-linejoin:round;stroke-miterlimit:4;}
	.st5{fill:none;stroke:#FFFFFF;stroke-width:2;stroke-linecap:round;stroke-linejoin:round;stroke-dasharray:2,4;}
</style>
<g transform="translate(-901 -4720)">
	<circle class="st0" cx="943" cy="4762" r="42"/>
	<path class="st1" d="M959.7,4748.4h-18.1v22.9h18.1V4751"/>
	<g transform="translate(929.405 4754.224)">
		<path class="st2" d="M21.3,0.1l0,16.6c0,1.6-1,3.1-3.1,4.3c-4.7,2.4-10.3,2.4-15,0C1,19.8,0,18.2,0,16.6L0,0c0,1.6,1,3.2,3.1,4.4
			c4.7,2.4,10.3,2.4,15,0C20.2,3.2,21.3,1.6,21.3,0.1z"/>
	</g>
	<g transform="translate(929.436 4748.081)">
		<ellipse transform="matrix(2.999987e-03 -1 1 2.999987e-03 4.4188 16.7817)" class="st3" cx="10.6" cy="6.2" rx="6.1" ry="10.6"/>
	</g>
	<g transform="translate(936.882 4752.408)">
		<ellipse transform="matrix(2.999987e-03 -1 1 2.999987e-03 1.3215 5.0205)" class="st4" cx="3.2" cy="1.8" rx="1.8" ry="3.2"/>
	</g>
	<line class="st5" x1="940" y1="4761.7" x2="940" y2="4775.7"/>
</g>
</svg>
