<?xml version="1.0" encoding="utf-8"?>
<!-- Generator: Adobe Illustrator 25.2.0, SVG Export Plug-In . SVG Version: 6.00 Build 0)  -->
<svg version="1.1" id="레이어_1" xmlns="http://www.w3.org/2000/svg" xmlns:xlink="http://www.w3.org/1999/xlink" x="0px"
	 y="0px" viewBox="0 0 84 84" style="enable-background:new 0 0 84 84;" xml:space="preserve">
<style type="text/css">
	.st0{fill:#F3F3F3;}
	.st1{fill:#FFFFFF;stroke:#222222;stroke-width:1.5;stroke-linejoin:bevel;}
	.st2{fill:none;stroke:#222222;stroke-width:1.5;stroke-linejoin:bevel;}
</style>
<g transform="translate(-1013 -4720)">
	<circle class="st0" cx="1055" cy="4762" r="42"/>
	<path class="st1" d="M1037.5,4760.5h36.4l0,0v6.6c0,4.7-3.8,8.5-8.5,8.5H1046c-4.7,0-8.5-3.8-8.5-8.5c0,0,0,0,0,0V4760.5
		L1037.5,4760.5z"/>
	<line class="st2" x1="1042.7" y1="4774.4" x2="1041.5" y2="4777.3"/>
	<line class="st2" x1="1068.7" y1="4774.4" x2="1069.9" y2="4777.3"/>
	<path class="st1" d="M1069.9,4760.5v-10.6h-4.3v4"/>
	<path class="st2" d="M1043,4748L1043,4748c1.2,1.2,1.2,3.1,0,4.3c0,0,0,0,0,0l0,0c-1.2,1.2-1.2,3.1,0,4.3"/>
	<path class="st2" d="M1048.8,4748L1048.8,4748c1.2,1.2,1.2,3.1,0,4.3l0,0c-1.2,1.2-1.2,3.1,0,4.3"/>
	<path class="st2" d="M1054.5,4748L1054.5,4748c1.2,1.2,1.2,3.1,0,4.3l0,0c-1.2,1.2-1.2,3.1,0,4.3c0,0,0,0,0,0"/>
</g>
</svg>
