<?xml version="1.0" encoding="utf-8"?>
<!-- Generator: Adobe Illustrator 25.2.0, SVG Export Plug-In . SVG Version: 6.00 Build 0)  -->
<svg version="1.1" id="레이어_1" xmlns="http://www.w3.org/2000/svg" xmlns:xlink="http://www.w3.org/1999/xlink" x="0px"
	 y="0px" viewBox="0 0 84 84" style="enable-background:new 0 0 84 84;" xml:space="preserve">
<style type="text/css">
	.st0{fill:#222222;}
	.st1{fill:none;stroke:#FFFFFF;stroke-width:1.5;stroke-linecap:round;stroke-linejoin:round;}
	.st2{fill:#FFFFFF;stroke:#FFFFFF;stroke-width:1.5;stroke-linecap:round;stroke-linejoin:round;}
	.st3{fill:#222222;stroke:#FFFFFF;stroke-width:1.5;stroke-linecap:round;stroke-linejoin:round;}
</style>
<g transform="translate(-1125 -4720)">
	<circle class="st0" cx="1167" cy="4762" r="42"/>
	<path class="st1" d="M1180.7,4753.7c0.2-2.4-0.3-4.8-1.5-6.9c-2.6,1-5,2.6-6.9,4.8c-3.1-1.1-6.4-1.1-9.4,0
		c-1.9-2.1-4.2-3.7-6.9-4.8c-1.2,2.1-1.7,4.5-1.5,6.9c0.1,2.7-0.1,5.3-0.7,7.9c-0.3,1.5-0.4,2.9-0.3,4.4c0.6,6.9,6.2,11.2,13.1,11.7
		c8.3,0.6,15.2-4.7,15.2-12.9c0-1.1-0.1-2.2-0.4-3.3C1180.8,4759,1180.6,4756.3,1180.7,4753.7z"/>
	<path class="st2" d="M1163.6,4771.7c0,0,3.4,0.9,3.9-2.1"/>
	<path class="st2" d="M1171.4,4771.7c0,0-3.4,0.9-3.9-2.1"/>
	<line class="st1" x1="1164.5" y1="4751.1" x2="1164.5" y2="4756.1"/>
	<line class="st1" x1="1170.2" y1="4751.1" x2="1170.2" y2="4756.1"/>
	<line class="st1" x1="1167.5" y1="4751.1" x2="1167.5" y2="4756.1"/>
	<path class="st1" d="M1158.3,4765.3c-2.6-1-5.3-1.4-8-1.2"/>
	<path class="st1" d="M1158.3,4768.6c-2.8,0.3-5.5,1-8.1,2.1"/>
	<path class="st1" d="M1176.9,4765.3c2.6-1,5.3-1.4,8-1.2"/>
	<path class="st1" d="M1176.9,4768.6c2.8,0.3,5.5,1,8.1,2.1"/>
	<circle class="st1" cx="1162.3" cy="4763.4" r="0.6"/>
	<circle class="st1" cx="1172.7" cy="4763.4" r="0.6"/>
	<path class="st3" d="M1167,4769.2l-0.3-0.4c-0.2-0.4-0.2-0.8,0.2-1.1c0.1-0.1,0.3-0.1,0.4-0.1h0.5c0.4,0,0.8,0.4,0.8,0.8
		c0,0.2,0,0.3-0.1,0.4l-0.3,0.4c-0.2,0.4-0.7,0.4-1.1,0.2C1167.1,4769.4,1167,4769.3,1167,4769.2z"/>
</g>
</svg>
