<?xml version="1.0" encoding="utf-8"?>
<!-- Generator: Adobe Illustrator 25.2.0, SVG Export Plug-In . SVG Version: 6.00 Build 0)  -->
<svg version="1.1" id="레이어_1" xmlns="http://www.w3.org/2000/svg" xmlns:xlink="http://www.w3.org/1999/xlink" x="0px"
	 y="0px" viewBox="0 0 84 84" style="enable-background:new 0 0 84 84;" xml:space="preserve">
<style type="text/css">
	.st0{fill:#F3F3F3;}
	.st1{fill:none;stroke:#222222;stroke-width:1.5;stroke-linejoin:round;}
	.st2{fill:#FFFFFF;stroke:#222222;stroke-width:1.5;stroke-linejoin:round;}
</style>
<g transform="translate(-1349 -4720)">
	<circle class="st0" cx="1391" cy="4762" r="42"/>
	<path class="st1" d="M1374.7,4775.8c1.7-1.7,4.6-1.7,6.3,0l0,0c1.7,1.7,4.5,1.7,6.3,0c0,0,0,0,0,0l0,0c1.7-1.7,4.6-1.7,6.3,0l0,0
		c1.7,1.7,4.5,1.7,6.3,0c0,0,0,0,0,0l0,0c1.7-1.7,4.6-1.7,6.3,0l0,0"/>
	<path class="st1" d="M1396.5,4771.6c0,0-2.7-6.1-1.7-18.4"/>
	<path class="st2" d="M1400.8,4753.6c-0.9-0.6-1.8-1-2.8-1.2l7.3-1.6c-0.4-1.6-3.1-2.4-6-1.7c-1.6,0.3-3.1,1.1-4.2,2.3
		c-0.3-1.6-1.1-3.1-2.3-4.2c-2.2-2.2-4.8-3-6-1.8l5.3,5.3c-1-0.3-2-0.5-3-0.5c-3,0-5.5,1.3-5.5,3h8.6c-0.7,0.4-1.4,1-1.9,1.7
		c-1.6,2-2.1,4.3-1,5.2l5.4-5.2l9.3,4.3C1404.7,4757.7,1403.4,4755.3,1400.8,4753.6z"/>
	<path class="st2" d="M1387.2,4775.8c1.7-1.7,4.6-1.7,6.3,0c1.7,1.7,4.5,1.7,6.3,0c0,0,0,0,0,0c0.8-0.9,2-1.3,3.2-1.3
		c-1.2-2.9-5-5.1-9.5-5.1c-5.5,0-9.9,3.1-9.9,7c0,0.2,0,0.4,0,0.7C1384.9,4777.3,1386.3,4776.8,1387.2,4775.8z"/>
</g>
</svg>
