<?xml version="1.0" encoding="utf-8"?>
<!-- Generator: Adobe Illustrator 25.2.0, SVG Export Plug-In . SVG Version: 6.00 Build 0)  -->
<svg version="1.1" id="레이어_1" xmlns="http://www.w3.org/2000/svg" xmlns:xlink="http://www.w3.org/1999/xlink" x="0px"
	 y="0px" viewBox="0 0 28 24" style="enable-background:new 0 0 28 24;" xml:space="preserve">
<style type="text/css">
	.st0{fill:#333333;}
	.st1{fill:none;}
</style>
<g transform="translate(-646.148 -355.48)">
	<g transform="translate(647.148 356.48)">
		<path class="st0" d="M11.7,15.7H11L5.1,1.8H0.7c-0.6,0-1-0.4-1-1s0.4-1,1-1h5.7L8.2,4h15.5c0.6-0.1,1.2,0.1,1.7,0.6
			c0.5,0.4,0.8,1,0.9,1.7c0,0.4,0,0.9-0.2,1.2L23.9,13c-0.6,1.6-2.1,2.6-3.8,2.7L11.7,15.7z M12.3,13.7h7.8c0.8,0,1.6-0.6,2-1.4
			l2.2-5.5c0-0.1,0.1-0.2,0.1-0.3c0-0.2-0.1-0.3-0.2-0.3C24.1,6.1,24,6,23.8,6L9.1,6L12.3,13.7z"/>
		<g transform="translate(9.77 16.276)">
			<path class="st0" d="M2.8,6C2.8,6,2.8,6,2.8,6C1,6-0.3,4.6-0.3,2.9s1.4-3.1,3.1-3.1c1.7,0,3.1,1.4,3.1,3.1v0C5.9,4.6,4.5,6,2.8,6
				z M2.8,1.8c-0.6,0-1.1,0.5-1.1,1.1C1.7,3.5,2.2,4,2.8,4c0,0,0,0,0,0c0.3,0,0.6-0.1,0.8-0.3s0.3-0.5,0.3-0.8l0,0
				C3.9,2.2,3.4,1.8,2.8,1.8z"/>
			<path class="st0" d="M10.9,6C10.9,6,10.9,6,10.9,6C9.2,6,7.8,4.6,7.8,2.9c0-1.7,1.4-3.1,3.1-3.1c1.7,0,3.1,1.4,3.1,3.1v0
				c0,0.8-0.3,1.6-0.9,2.2C12.5,5.7,11.7,6,10.9,6z M10.9,1.8c-0.6,0-1.1,0.5-1.1,1.1c0,0.3,0.1,0.6,0.3,0.8S10.6,4,10.9,4h0
				c0.3,0,0.6-0.1,0.8-0.3C11.9,3.4,12,3.2,12,2.9C12,2.2,11.5,1.8,10.9,1.8z"/>
		</g>
	</g>
</g>
<rect class="st1" width="28" height="24"/>
</svg>
