<?xml version="1.0" encoding="utf-8"?>
<!-- Generator: Adobe Illustrator 25.2.0, SVG Export Plug-In . SVG Version: 6.00 Build 0)  -->
<svg version="1.1" id="레이어_1" xmlns="http://www.w3.org/2000/svg" xmlns:xlink="http://www.w3.org/1999/xlink" x="0px"
	 y="0px" viewBox="0 0 24 24" style="enable-background:new 0 0 24 24;" xml:space="preserve">
<style type="text/css">
	.st0{fill:#333333;}
	.st1{fill:none;}
</style>
<g transform="translate(-546.006 -364.774)">
	<path class="st0" d="M558,375.1c-2.8,0-5-2.2-5-4.8s2.3-4.8,5-4.8c2.8,0,5,2.2,5,4.8S560.8,375.1,558,375.1z M558,367.5
		c-1.6,0-2.9,1.3-2.9,2.8s1.3,2.8,2.9,2.8c1.6,0,2.9-1.3,2.9-2.8S559.6,367.5,558,367.5z"/>
	<path class="st0" d="M569.6,388.1h-2.1c0-5.7-4.3-10.4-9.5-10.4c-5.3,0-9.5,4.6-9.5,10.4h-2.1c0-6.8,5.2-12.4,11.6-12.4
		C564.4,375.7,569.6,381.3,569.6,388.1z"/>
</g>
<rect class="st1" width="24" height="24"/>
</svg>
