<?xml version="1.0" encoding="utf-8"?>
<!-- Generator: Adobe Illustrator 25.2.0, SVG Export Plug-In . SVG Version: 6.00 Build 0)  -->
<svg version="1.1" id="레이어_1" xmlns="http://www.w3.org/2000/svg" xmlns:xlink="http://www.w3.org/1999/xlink" x="0px"
	 y="0px" viewBox="0 0 24 24" style="enable-background:new 0 0 24 24;" xml:space="preserve">
<style type="text/css">
	.st0{fill:none;}
	.st1{fill:#333333;}
</style>
<g transform="translate(-1124.93 -78)">
	<g transform="translate(1124.93 78)">
		<circle class="st0" cx="10.2" cy="10.8" r="10"/>
		<path class="st1" d="M10.2,20.8c-5.5,0-10-4.5-10-10c0-5.5,4.5-10,10-10c5.5,0,10,4.5,10,10C20.2,16.3,15.8,20.8,10.2,20.8z
			 M10.2,2.8c-4.4,0-8,3.6-8,8s3.6,8,8,8s8-3.6,8-8S14.7,2.8,10.2,2.8z"/>
	</g>
	<path class="st1" d="M1147.7,101.2c-0.3,0-0.5-0.1-0.7-0.3l-5.4-5.3c-0.4-0.4-0.4-1,0-1.4s1-0.4,1.4,0l5.4,5.3c0.4,0.4,0.4,1,0,1.4
		C1148.2,101.1,1147.9,101.2,1147.7,101.2z"/>
</g>
<rect class="st0" width="24" height="24"/>
</svg>
