<?xml version="1.0" encoding="utf-8"?>
<!-- Generator: Adobe Illustrator 25.2.0, SVG Export Plug-In . SVG Version: 6.00 Build 0)  -->
<svg version="1.1" id="레이어_1" xmlns="http://www.w3.org/2000/svg" xmlns:xlink="http://www.w3.org/1999/xlink" x="0px"
	 y="0px" viewBox="0 0 242 68" style="enable-background:new 0 0 242 68;" xml:space="preserve">
<style type="text/css">
	.st0{fill:#004155;}
	.st1{fill:#474645;}
	.st2{clip-path:url(#SVGID_2_);}
	.st3{fill:#FFDD46;}
	.st4{fill:#00525D;}
	.st5{fill:#007887;}
	.st6{fill:#ACDDEE;}
	.st7{fill:#6CC4DE;}
	.st8{fill:#2E98AB;}
	.st9{fill:#0C2244;}
	.st10{fill:#003265;}
	.st11{clip-path:url(#SVGID_4_);}
	.st12{fill:#5C3411;}
	.st13{fill:#E0B190;}
	.st14{fill:#F7DABE;}
	.st15{fill:#F6F6F6;}
	.st16{fill:#9F5E27;}
	.st17{fill:#462606;}
	.st18{fill:#1A1311;}
	.st19{fill:#FFFFFF;}
	.st20{fill:#844D1F;}
	.st21{fill:#78461B;}
	.st22{fill:#D8E7F0;}
	.st23{fill:none;}
</style>
<g transform="translate(-104.569 -635.541)">
	<g transform="translate(178.502 648.344)">
		<g transform="translate(1.524)">
			<path class="st0" d="M7.5,12.5l6.2,11.1L11.2,25l-4.5-8.4c-1.3,5.3-3.5,8.2-6.7,8.7v-2.9c1.6-0.5,2.9-2.3,3.7-5.4
				c1-4.1,1.4-8.2,1.3-12.4H0.4V1.9h12v2.7H7.9C7.9,7.3,7.8,9.9,7.5,12.5z M14.9,1.2h2.8v25.3h-2.8V13.7h-4v-2.8h4V1.2z M24.2,1
				v25.9h-2.8V1L24.2,1z"/>
			<path class="st0" d="M53.2,20.3H42v7.3h-3v-7.3H27.8v-2.8h25.4V20.3z M35.1,13.1c-2,0.9-4.2,1.5-6.5,1.6v-2.8
				c2.5-0.2,4.8-1,6.9-2.3c1.8-1.2,3.2-3,3.7-5.2h-9.9V1.7h22.4v2.7h-9.4c-0.2,0.9-0.5,1.8-0.9,2.7l11.1,5l-1.2,2.5L40,9.4
				C38.7,11,37,12.3,35.1,13.1L35.1,13.1z"/>
			<path class="st0" d="M68.8,1.8h2.9v23.6H57.3V1.8h2.9v8.9h8.6V1.8z M68.8,22.6v-9.2h-8.6v9.2H68.8z M79.6,1v25.9h-2.9V1H79.6z"/>
			<path class="st0" d="M96.3,1.8h2.9v23.6H85.1V1.8H88v8.9h8.3L96.3,1.8z M96.3,22.6v-9.2H88v9.2H96.3z M110.5,14.4h-3.6v12.5H104
				V1h2.9v10.5h3.6L110.5,14.4z"/>
			<path class="st0" d="M113.4,12.1h11.4V4.7h-11.4V1.9h14.4v12.9h-11.4v7.8h7.4c1.2,0,2.4-0.1,3.6-0.3c1-0.2,2-0.5,3-0.9v2.8
				c-0.9,0.4-1.9,0.7-2.9,0.9c-1.2,0.2-2.5,0.3-3.7,0.3h-10.3L113.4,12.1z M132.7,1h3v25.9h-2.9L132.7,1z"/>
			<path class="st0" d="M152.7,7.2V4.1h-11.9V1.6h14.8v8h-11.8v3.2h6.4c1.6,0,3.1-0.1,4.7-0.3c1.1-0.1,2.3-0.4,3.3-0.8v2.5
				c-1.1,0.4-2.2,0.7-3.3,0.8c-1.6,0.2-3.2,0.3-4.8,0.3h-9.1v-8L152.7,7.2z M160.4,18.4c2,0.8,2.9,2,2.9,3.7c0,1.7-1,2.9-3,3.7
				c-5.2,1.5-10.7,1.5-15.8,0c-2-0.8-3-2-3-3.7c0-1.7,1-2.9,3-3.7C149.7,16.9,155.2,16.9,160.4,18.4L160.4,18.4z M158.1,23.9
				c1.4-0.4,2.1-1,2.1-1.8s-0.7-1.4-2.1-1.8c-3.7-0.8-7.6-0.8-11.3,0c-1.4,0.4-2.1,1-2.1,1.8s0.7,1.4,2.1,1.8
				C150.5,24.7,154.4,24.7,158.1,23.9z M166.5,6.7v2.9H163v6.9h-3V1h2.9v5.7L166.5,6.7z"/>
		</g>
		<g transform="translate(0 34.487)">
			<path class="st1" d="M1.6,9.3c0.2,0.3,0.5,0.6,0.8,0.8c0.4,0.2,0.9,0.3,1.3,0.3c0.7,0,1.3-0.2,1.8-0.7c0.5-0.5,0.7-1.2,0.7-1.9
				V1.2h1.3v6.6c0,0.7-0.2,1.4-0.5,2c-0.3,0.6-0.8,1-1.3,1.3c-1.2,0.6-2.7,0.6-4,0c-0.5-0.3-1-0.7-1.3-1.2C0.2,9.4,0,8.8,0,8.1h1.3
				C1.3,8.5,1.4,8.9,1.6,9.3z"/>
			<path class="st1" d="M16.6,1.2v1.2h-5.8v3.2h5.3v1.2h-5.3v3.4h5.9v1.2H9.5V1.2H16.6z"/>
			<path class="st1" d="M19.3,9.3c0.2,0.3,0.5,0.6,0.8,0.8c0.4,0.2,0.9,0.3,1.3,0.3c0.7,0,1.3-0.2,1.8-0.7c0.5-0.5,0.7-1.2,0.7-1.9
				V1.2h1.3v6.6c0,0.7-0.2,1.4-0.5,2c-0.3,0.6-0.8,1-1.3,1.3c-1.2,0.6-2.7,0.6-3.9,0c-0.5-0.3-1-0.7-1.3-1.2
				c-0.3-0.5-0.5-1.1-0.5-1.8h1.3C19,8.5,19.1,8.9,19.3,9.3z"/>
			<path class="st1" d="M28.4,1.2V7c0,0.6,0.1,1.2,0.4,1.8c0.2,0.5,0.6,0.9,1.1,1.2c1,0.6,2.2,0.6,3.2,0c0.5-0.3,0.8-0.7,1-1.2
				c0.3-0.6,0.4-1.2,0.4-1.8V1.2h1.3V7c0,0.8-0.2,1.7-0.5,2.4c-0.3,0.7-0.9,1.2-1.5,1.6c-1.4,0.8-3.1,0.8-4.6,0
				c-0.7-0.4-1.2-0.9-1.5-1.6C27.2,8.7,27,7.8,27.1,7V1.2H28.4z"/>
			<path class="st1" d="M41.8,1.2c0.9-0.1,1.8,0.2,2.5,0.7c0.6,0.5,0.9,1.3,0.9,2.1c0,0.5-0.2,0.9-0.4,1.3c-0.3,0.4-0.7,0.7-1.1,0.8
				c0.6,0.1,1.1,0.4,1.4,0.8c0.4,0.4,0.6,1,0.6,1.6c0,0.8-0.3,1.6-0.9,2.1c-0.7,0.6-1.7,0.8-2.6,0.8h-4.4V1.2H41.8z M43.3,5.3
				C44,4.7,44.1,3.7,43.5,3c0-0.1-0.1-0.1-0.2-0.2c-0.5-0.3-1-0.5-1.6-0.4H39v3.3h2.7C42.3,5.7,42.9,5.6,43.3,5.3L43.3,5.3z
				 M43.8,9.8c0.7-0.6,0.8-1.6,0.2-2.3c-0.1-0.1-0.1-0.2-0.2-0.2c-0.5-0.3-1.1-0.5-1.7-0.4H39v3.4h3.1C42.7,10.3,43.3,10.1,43.8,9.8
				L43.8,9.8z"/>
			<path class="st1" d="M48.7,11.4h-1.3V1.2h1.3V11.4z"/>
			<path class="st1" d="M54.8,1.2c0.9-0.1,1.8,0.2,2.5,0.7c0.6,0.5,0.9,1.3,0.9,2.1c0,0.5-0.2,0.9-0.4,1.3c-0.3,0.4-0.7,0.7-1.1,0.8
				c0.6,0.1,1.1,0.4,1.4,0.8c0.4,0.4,0.6,1,0.6,1.6c0,0.8-0.3,1.6-0.9,2.1c-0.7,0.6-1.7,0.8-2.6,0.8h-4.4V1.2H54.8z M56.4,5.3
				c0.7-0.6,0.7-1.6,0.2-2.3c0-0.1-0.1-0.1-0.2-0.2c-0.5-0.3-1-0.5-1.6-0.4h-2.7v3.3h2.7C55.4,5.7,55.9,5.6,56.4,5.3L56.4,5.3z
				 M56.8,9.8c0.7-0.6,0.8-1.6,0.2-2.3c-0.1-0.1-0.1-0.2-0.2-0.2c-0.5-0.3-1.1-0.5-1.7-0.4h-3.1v3.4h3.1
				C55.8,10.3,56.3,10.1,56.8,9.8L56.8,9.8z"/>
			<path class="st1" d="M66.4,8.9h-4.8l-1,2.5h-1.4l4.1-10.1h1.4l4.1,10.1h-1.4L66.4,8.9z M66,7.7l-1.9-4.9l-1.9,4.9H66z"/>
			<path class="st1" d="M76.7,11.4l-2.3-3.6c-0.2,0-0.4,0-0.6,0h-2.4v3.6h-1.3V1.2h3.7c0.7,0,1.5,0.1,2.1,0.4c0.6,0.2,1,0.6,1.4,1.1
				c0.3,0.5,0.5,1.1,0.5,1.7c0,0.7-0.2,1.3-0.5,1.8c-0.4,0.5-0.9,0.9-1.6,1.1l2.5,3.9L76.7,11.4z M75.9,6.1c0.9-0.7,1-2,0.3-2.8
				C76,3.1,76,3,75.9,3c-0.6-0.4-1.3-0.6-2-0.5h-2.3v4.2h2.3C74.5,6.7,75.2,6.5,75.9,6.1L75.9,6.1z"/>
			<path class="st1" d="M81,11.4h-1.3V1.2H81V11.4z"/>
			<path class="st1" d="M89.6,11.4l-2.3-3.6c-0.2,0-0.4,0-0.6,0h-2.4v3.6h-1.3V1.2h3.7c0.7,0,1.5,0.1,2.1,0.4c0.6,0.2,1,0.6,1.4,1.1
				c0.3,0.5,0.5,1.1,0.5,1.7c0.1,1.4-0.8,2.6-2.1,3l2.5,3.9L89.6,11.4z M88.8,6.1c0.9-0.7,1-2,0.3-2.8C88.9,3.1,88.9,3,88.8,3
				c-0.6-0.4-1.3-0.6-2-0.5h-2.3v4.2h2.3C87.4,6.7,88.1,6.5,88.8,6.1L88.8,6.1z"/>
			<path class="st1" d="M99,8.9h-4.8l-1,2.5h-1.4L96,1.2h1.4l4.1,10.1H100L99,8.9z M98.5,7.7l-1.9-4.9l-1.9,4.9H98.5z"/>
			<path class="st1" d="M104,1.2l6,7.9v-8h1.3v10.1h-1.2l-6-7.9v8h-1.3V1.2H104z"/>
			<path class="st1" d="M115.5,10.9c-0.8-0.4-1.4-1.1-1.9-1.9c-0.9-1.7-0.9-3.7,0-5.5c0.4-0.8,1.1-1.4,1.9-1.9
				c0.8-0.5,1.7-0.7,2.7-0.7c0.8,0,1.5,0.1,2.3,0.4c0.7,0.3,1.3,0.7,1.7,1.2c0.5,0.5,0.8,1.1,1,1.8h-1.4c-0.1-0.4-0.4-0.8-0.7-1.1
				c-0.4-0.3-0.8-0.6-1.2-0.8c-0.5-0.2-1-0.3-1.6-0.3c-0.7,0-1.4,0.2-2,0.5c-0.6,0.3-1.1,0.8-1.4,1.5c-0.3,0.6-0.5,1.4-0.5,2.1
				c0,0.7,0.2,1.5,0.5,2.1c0.3,0.6,0.8,1.1,1.4,1.5c0.6,0.4,1.3,0.5,2,0.5c0.6,0,1.3-0.1,1.8-0.4c0.5-0.3,1-0.7,1.3-1.1
				c0.3-0.5,0.5-1.1,0.6-1.6h-4V6.1h5.3v0.5c0,0.9-0.2,1.8-0.7,2.6c-0.4,0.8-1.1,1.4-1.8,1.8C119.1,11.8,117.1,11.8,115.5,10.9
				L115.5,10.9z"/>
		</g>
	</g>
	<g transform="translate(104.569 635.541)">
		<g>
			<defs>
				<ellipse id="SVGID_1_" cx="33.1" cy="34" rx="33.1" ry="33"/>
			</defs>
			<clipPath id="SVGID_2_">
				<use xlink:href="#SVGID_1_"  style="overflow:visible;"/>
			</clipPath>
			<g class="st2">
				<ellipse class="st3" cx="33.1" cy="32.7" rx="23" ry="22.9"/>
				<path class="st4" d="M59.2,30.2c-0.4-0.1-11.2-1.7-13.7-2c-0.4,0-0.7-0.1-1.1-0.2c-2.2-0.5-4.4-1.4-6.3-2.5
					c-1.6-0.8-3.5-0.9-5.2-0.5c-1.9,0-3.9-0.2-5.7-0.7c-1.3-0.6-2.8-0.3-3.8,0.7c-0.8,0.9-1.6,1.7-2.4,2.5c-0.8,0.4-1.6,0.7-2.5,1
					c-1.9,0.6-4.1,1.4-5.4,1.7c-0.7,0.2-1.4,0.3-2.1,0.4l-9.7,1c0,0-10,1.5-17,3.4l2.9,23.1h92.3V37.8
					C79.3,37.8,76.4,33.2,59.2,30.2z"/>
				<path class="st5" d="M68.2,39c-1.2-0.8-2.6-1.4-4-1.6c-1.7-0.4-3.5-0.7-5.2-0.8c-3.1-0.3-6.1-0.3-9.2-0.2
					c-0.5,0-1.1,0.1-1.6,0.1c-3.7-0.1-6.6-2.1-9.9-3.5c-6.8-3-14.1-0.1-20.8,1.9c-4.4,1.3-9.5,2.9-14,1.9c-1.7-0.5-3.5-0.7-5.3-0.4
					l0,18.9H68L68.2,39z"/>
				<path class="st6" d="M78.4,46.5c0,0-16.2-16.1-38.8-5.3c-1.6,0.8-3.1,1.6-4.5,2.6c-4.8,3.3-20.4,13.1-32,10
					c-4.5-1.9-8.1-5.4-10.3-9.7v30.8h85.6L78.4,46.5z"/>
				<path class="st7" d="M-4.1,42.7c0-0.4,4.1-1.4,4.5-1.5c3.7-0.9,7.5-1.1,11.3-0.7c9.1,1.1,15.2,6.5,21.8,10.6
					c7.8,4.7,16.3,8.2,25.3,10.1c2.3,0.5,4.7,0.9,7,1.2c3.3,0.4,6.7,0.4,10,0c2.9-0.4,5.5-1.9,7.4-4.1V71H-2L-4.1,42.7z"/>
				<path class="st8" d="M3.3,46.6c6.9-2.5,14.5-2.3,21.3,0.6c3.5,1.6,6.4,3.7,9.8,5.4c2.7,1.3,5.5,2.5,8.3,3.6
					c11.5,4.2,23.7,6.2,35.9,5.9c0,0,5.6-0.2,9.6-2.1v11.5H-1.9V48.9C-0.3,47.9,1.5,47.2,3.3,46.6z"/>
			</g>
		</g>
		<path class="st9" d="M72.9,23"/>
		<g transform="translate(3.926 2.187)">
			<path class="st10" d="M3.4,26.9c0.2-0.1,0.3-0.2,0.5-0.3C4,26.4,4.1,26.2,4.1,26c0.1-0.3,0-0.7-0.2-0.9c-0.2-0.3-0.5-0.4-0.8-0.5
				L0,23.9l0.1-0.6l3.1,0.6c0.3,0.1,0.6,0.2,0.9,0.4c0.2,0.2,0.4,0.5,0.5,0.8c0.1,0.3,0.1,0.7,0,1c-0.1,0.3-0.2,0.6-0.4,0.9
				c-0.2,0.2-0.4,0.4-0.7,0.5c-0.3,0.1-0.6,0.1-0.9,0.1L2.8,27C3,27,3.2,27,3.4,26.9z"/>
			<path class="st10" d="M1.9,18.2l0.5,0.2l-1,2.6l1.4,0.6l0.9-2.4l0.5,0.2l-0.9,2.4l1.5,0.6l1-2.7l0.5,0.2l-1.3,3.3l-4.6-1.8
				L1.9,18.2z"/>
			<path class="st10" d="M6.3,18.2c0.2,0,0.4,0,0.6-0.1c0.2-0.1,0.3-0.3,0.5-0.5c0.2-0.3,0.3-0.6,0.2-0.9c-0.1-0.3-0.3-0.6-0.6-0.7
				l-2.7-1.7l0.3-0.5l2.7,1.7c0.3,0.2,0.5,0.4,0.7,0.7c0.2,0.3,0.2,0.6,0.2,0.9c-0.1,0.7-0.4,1.3-1,1.7c-0.3,0.2-0.6,0.2-0.8,0.2
				c-0.3,0-0.6-0.1-0.9-0.2l0.3-0.5C5.9,18.2,6.1,18.2,6.3,18.2z"/>
			<path class="st10" d="M6.1,11.7l2.1,1.9c0.2,0.2,0.5,0.4,0.8,0.5c0.3,0.1,0.5,0.1,0.8,0c0.3-0.1,0.5-0.2,0.7-0.4
				c0.2-0.2,0.3-0.4,0.4-0.7c0-0.3,0-0.5-0.1-0.8c-0.1-0.3-0.3-0.5-0.5-0.7L8.1,9.5L8.6,9l2.1,1.9c0.3,0.3,0.5,0.6,0.7,1
				c0.1,0.3,0.2,0.7,0.1,1.1c-0.2,0.8-0.8,1.4-1.5,1.6c-0.3,0.1-0.7,0.1-1.1,0c-0.4-0.1-0.7-0.3-1-0.6l-2.1-1.9L6.1,11.7z"/>
			<path class="st10" d="M11.7,6.5c0.3-0.3,0.8-0.4,1.2-0.4c0.4,0,0.7,0.2,0.9,0.6c0.1,0.2,0.2,0.4,0.2,0.6c0,0.2-0.1,0.4-0.2,0.6
				c0.2-0.1,0.5-0.1,0.8-0.1c0.3,0.1,0.5,0.2,0.7,0.4c0.2,0.3,0.3,0.7,0.2,1.1c-0.1,0.4-0.4,0.8-0.8,1L13,11.7l-2.9-4L11.7,6.5z
				 M13.5,7.7c0.1-0.4-0.2-0.8-0.6-0.9c0,0-0.1,0-0.1,0c-0.3,0-0.5,0.1-0.8,0.3l-1.1,0.8l0.9,1.3l1.1-0.8
				C13.2,8.1,13.4,7.9,13.5,7.7L13.5,7.7z M14.9,9.3c0.1-0.4-0.1-0.9-0.5-1c-0.1,0-0.1,0-0.2,0c-0.3,0-0.6,0.1-0.8,0.3l-1.2,0.9
				l1,1.3l1.2-0.9C14.6,9.8,14.8,9.6,14.9,9.3L14.9,9.3z"/>
			<path class="st10" d="M17.6,8.7L17,9l-2.3-4.3l0.6-0.3L17.6,8.7z"/>
			<path class="st10" d="M18.8,2.8c0.4-0.2,0.9-0.2,1.3-0.1c0.4,0.1,0.6,0.4,0.8,0.8C21,3.7,21,4,20.9,4.2c-0.1,0.2-0.2,0.4-0.4,0.5
				c0.3,0,0.6,0,0.8,0.1c0.2,0.1,0.4,0.3,0.5,0.6C22,5.8,22,6.2,21.8,6.6c-0.3,0.4-0.6,0.7-1.1,0.8l-2,0.7L17,3.5L18.8,2.8z
				 M20.2,4.4c0.2-0.4,0.1-0.9-0.3-1.1c0,0-0.1,0-0.1-0.1c-0.3-0.1-0.6,0-0.8,0.1l-1.2,0.5l0.5,1.5l1.2-0.5
				C19.8,4.8,20.1,4.6,20.2,4.4L20.2,4.4z M21.2,6.3c0.2-0.4,0.1-0.9-0.3-1.1c0,0-0.1-0.1-0.2-0.1c-0.3-0.1-0.6,0-0.8,0.1l-1.4,0.5
				l0.6,1.6l1.4-0.5C20.8,6.7,21,6.6,21.2,6.3z"/>
			<path class="st10" d="M26,4.9l-2.3,0.4l-0.3,1.3l-0.7,0.1l1.2-5.2l0.7-0.1l2.7,4.5L26.6,6L26,4.9z M25.6,4.4l-1.3-2.2l-0.6,2.5
				L25.6,4.4z"/>
			<path class="st10" d="M31.2,6l-1-1.8c-0.1,0-0.2,0-0.3,0l-1.2,0l-0.1,1.7l-0.6,0L28.2,1L30,1.1c0.4,0,0.7,0.1,1,0.2
				c0.3,0.1,0.5,0.3,0.6,0.6c0.1,0.3,0.2,0.6,0.2,0.9c0,0.3-0.1,0.6-0.3,0.9c-0.2,0.3-0.5,0.4-0.8,0.5L32,6.1L31.2,6z M30.9,3.4
				c0.4-0.3,0.5-0.9,0.2-1.4C31.1,2,31,2,31,1.9c-0.3-0.2-0.6-0.3-1-0.3l-1.1,0l-0.1,2l1.1,0C30.2,3.7,30.6,3.6,30.9,3.4z"/>
			<path class="st10" d="M33.4,6.4l-0.6-0.1l0.8-4.8l0.6,0.1L33.4,6.4z"/>
			<path class="st10" d="M37.7,7.5l-0.5-2c-0.1,0-0.2-0.1-0.3-0.1l-1.1-0.4l-0.5,1.7l-0.6-0.2l1.5-4.7l1.7,0.6
				c0.3,0.1,0.7,0.3,0.9,0.5c0.2,0.2,0.4,0.4,0.5,0.7c0.1,0.3,0.1,0.6,0,0.9c-0.1,0.3-0.3,0.6-0.5,0.8c-0.3,0.2-0.6,0.3-0.9,0.3
				l0.6,2.2L37.7,7.5z M38.1,5c0.5-0.2,0.7-0.8,0.5-1.3c0-0.1-0.1-0.1-0.1-0.2C38.3,3.3,38,3.1,37.6,3l-1.1-0.3l-0.6,1.9L37,4.9
				C37.4,5,37.7,5.1,38.1,5L38.1,5z"/>
			<path class="st10" d="M42.5,8.6l-2-1.1l-1,0.8l-0.6-0.3L43,4.6l0.6,0.3l-0.6,5.3l-0.6-0.3L42.5,8.6z M42.5,8l0.3-2.5l-2,1.6
				L42.5,8z"/>
			<path class="st10" d="M47.2,7.3l-0.3,4.8l2.5-2.9l0.5,0.4l-3.2,3.7L46.2,13l0.3-4.8L44,11.1l-0.5-0.4L46.7,7L47.2,7.3z"/>
			<path class="st10" d="M48.2,14.9c-0.1-0.4,0-0.9,0.2-1.3c0.4-0.8,1.2-1.4,2.1-1.6c0.4-0.1,0.9,0,1.3,0.2c0.4,0.2,0.8,0.5,1,0.9
				c0.2,0.3,0.4,0.7,0.5,1c0.1,0.3,0.1,0.7,0,1c-0.1,0.3-0.2,0.6-0.4,0.9l-0.4-0.6c0.1-0.2,0.2-0.4,0.2-0.6c0-0.2,0-0.5,0-0.7
				c-0.1-0.3-0.2-0.5-0.3-0.7c-0.2-0.3-0.5-0.5-0.8-0.6c-0.3-0.1-0.6-0.2-1-0.1c-0.7,0.1-1.3,0.6-1.6,1.2c-0.1,0.3-0.2,0.6-0.2,1
				c0,0.3,0.2,0.7,0.4,1c0.2,0.2,0.4,0.5,0.7,0.6c0.3,0.1,0.5,0.2,0.8,0.2c0.3,0,0.6-0.1,0.8-0.2l-1.1-1.6l0.4-0.3l1.5,2.1l-0.2,0.1
				c-0.4,0.3-0.8,0.4-1.2,0.5c-0.4,0-0.9,0-1.2-0.2C48.9,16.6,48.3,15.8,48.2,14.9L48.2,14.9z"/>
		</g>
		<g transform="translate(0.13)">
			<g>
				<defs>
					<ellipse id="SVGID_3_" cx="33.1" cy="34" rx="33.1" ry="33"/>
				</defs>
				<clipPath id="SVGID_4_">
					<use xlink:href="#SVGID_3_"  style="overflow:visible;"/>
				</clipPath>
				<g class="st11">
					<g transform="translate(6.713 19.258)">
						<path class="st12" d="M21,19.6c0,0,12.5-0.3,16.3,0.4l-0.5,1.4c0,0-13.1-0.6-16.9-0.2L21,19.6z"/>
						<path class="st13" d="M48.3,17.6c0,0-1.6,0.8-2.4,5.9l-1.5,4.4l-3.8-3.5l-2.2-4.3l0.7-5.2l1.6-3.1L48.3,17.6z"/>
						<path class="st14" d="M49.8,15.8c-0.4,0.5-0.8,1-1.2,1.6c-0.5,0.5-1,1-1.5,1.4c-1.7,1.5-3.9,1.1-5.6-0.1
							c-1.1-0.7-1.9-1.6-2.4-2.8c-0.2-0.5-0.3-0.9-0.5-1.4c-0.1-0.4-0.2-0.9-0.3-1.3c-0.3-0.2-0.1-0.7-0.1-0.9
							c0.1-0.7,0.2-1.4,0.5-2c0.7-1.6,1.9-2.9,3.5-3.6c0.3-0.1,0.7-0.4,1.1-0.5c0.6-0.2,1.3-0.4,1.9-0.5c1.3-0.2,2.6,0,3.8,0.4
							C50,6.4,50.8,7,51.5,7.7c0.3,0.3,0.5,0.7,0.7,1c0.3,0.6,0.4,1.2,0.3,1.9c-0.1,0.3,0,0.5,0,0.8c0,0.3-0.1,0.6-0.2,0.8
							c-0.1,0.5-0.2,0.9-0.3,1.4c-0.2,0.5-0.6,0.9-1,1.1C50.6,15.1,50.2,15.5,49.8,15.8z"/>
						<path class="st15" d="M51.9,13.8c0.5-0.8,0.9-1.6,1.1-2.5c0.4-1.4,0.5-2.9,0.3-4.4c-0.4-2.7-2.3-5-5-5.7
							c-0.2-0.1-0.4-0.1-0.6-0.1c-1.3-0.2-2.5-0.1-3.7,0.4c-1.7,0.6-3.3,1-4.5,2.4c-1.4,1.7-2.1,3.9-2.1,6.1c-0.1,1.4,0.3,2.7,1,3.8
							c0.1-0.7,0.2-1.3,0.5-2c0.3-0.8,0.8-1.5,1.5-2.1c1.3-1.3,2.8-2.3,4.6-2.8c3.5-1.1,6.1,0.9,5.9,4.5c0,0.5-1,4.7-2.8,6.6
							C49.4,16.7,50.7,15.3,51.9,13.8z"/>
						<path class="st16" d="M27.5,25.8c-0.1-1.9-1.5-3.6-2.9-4.8c-1.7-1.5-4.5-2.3-6.7-2.7c-1.9-0.3-3.8-0.2-5.6,0.5
							c-1.9,0.8-3.9,2-5,3.8c-1.6,2.8-3,6.8-1.9,9.9c0.5,1.6,1.2,3.1,2.1,4.5c1,1.2,3.2,1.9,4.6,2.3c1.7,0.6,3.4,0.8,5.2,0.6
							c2.6-0.2,5-1.3,6.9-3c1.7-1.4,3.2-2.8,3.5-5c0.2-1.2,0.2-2.4,0-3.6C27.6,27.5,27.5,26.6,27.5,25.8z"/>
						<path class="st12" d="M3.2,30.2c-1.9-0.2-1.7-1.6-1.9,2.7c-0.1,1.4-0.2,2.8-0.2,4.2c0.1,1.3,2,2.8,3.2,3.5
							c1.3,0.8,2.5,1.6,3.8,2.2c2.3,1.2,5.7,2.9,8.2,1.1c1.9-1.4,3.1-4.1,3.5-6.4c0.2-0.9,0.4-1.3-0.4-1.8s-2.2,0.2-3.1,0.1
							c-1.3-0.1-2.5-0.4-3.7-0.8c-1.3-0.7-2.6-1.3-4-1.8C6.7,32.5,4.8,30.9,3.2,30.2z"/>
						<path class="st17" d="M1.1,36.5c-1.2,0.1-1.3,1.8-0.9,3c0.6,1.1,1.5,2,2.6,2.6c2.4,1.5,4.9,2.7,7.5,3.7
							c1.5,0.6,3.2,0.7,4.8,0.5c1.3-0.3,2.8-0.8,2.5-2.1c-0.4-1.4-1.3-0.1-3,0.1c-1.3,0.1-3.8-0.9-5.2-1.3c-1.8-0.6-3.4-1.4-5-2.5
							C3.4,39.6,1.4,38.3,1.1,36.5z"/>
						<path class="st17" d="M6.7,23.7c-0.3,0.2-1.4,1-2.1,1.7c-1,0.8-1.9,1.6-2.8,2.5c-1.6,1.9-0.5,3.8,1.2,5.2
							c3.2,2.4,7,4.7,11,5.3c1.9,0.4,3.9,0.3,5.7-0.4c1.5-0.7,4.6-5.7,2.6-4.9c-1.4,0.7-2.9,1.2-4.4,1.6c-2.1,0.2-4.2,0-6.1-0.8
							c-2.2-0.8-4.6-1.5-5.9-3.6S6,25.3,6.7,23.7z"/>
						<path class="st18" d="M14.3,58c0.1-4.4-0.5-8.6,0.7-13c0.5-2.1,1.5-4,2.9-5.7c0.7-0.8,1.4-1.7,2.1-2.5
							c0.6-0.7,1.6-1.4,2.1-1.8c0.5,0.4,1.7,0.7,2.3,1.1c1.5,0.9,3.2,1.7,4.8,2.5c3,1.4,6.4,2.1,9.3,3.6c0.8,0.4,1.4,0.5,1.6,1.4
							c0,0.7-0.1,1.3-0.3,2c-0.3,1.5-0.5,2.9-0.7,4.4c-0.4,3.1-1.2,5.9-1.1,9c0,0.8,0.3,1.8,0.3,2.6c0,1.1-0.9,0.7-1.8,0.5
							c-3.1-0.7-6.3-1.3-9.4-1.8c-2.5-0.4-5.2-0.8-7.8-1C17.5,59.1,15.8,58.6,14.3,58z"/>
						<path class="st19" d="M38.9,16.9c0,0-1.6,1-2.2,1.4c-1.5,0.8-2.7,1.3-3.9,2c-2.6,1.4-4.9,4-6.9,6.1c-2.2,2.2-4.1,4.5-5.8,7.1
							c-1,1.6-1.7,4.2-0.8,6c1.2,2.1,3,3.8,5.2,4.8c0.9,0.4,1.9,0.7,2.8,1c0.8,0.3,1.8,0.3,2.5-0.1c0.7-0.5,0.9-1.9,1.5-2.7
							c0.3-0.4,1.7-2.4,2.2-2.4s2,1.5,2.5,1.8c1,0.7,1.5,1.4,2.8,1.3c2.2,0,3.5-2.8,4.6-4.4c1-1.5,1.7-3.1,2.1-4.8
							c0.4-1.7,0.6-3.4,0.8-5.1c0.2-1.7,0.2-3.4,0.1-5.2c-0.2-0.8-0.1-1-0.2-2.1c-0.2,1-0.5,2-1,3c-0.4,0.8-0.9,1.6-1.5,2.2
							c-2.2-2-3.2-3.1-4.1-5.4C39.2,20,38.9,18.5,38.9,16.9z"/>
						<path class="st15" d="M42.6,32c0.4,0.2,1-0.1,1.5-0.1c0.7,0,1.3,0,2-0.1c0.6-0.1,0.9-0.3,1.2,0.2c0.2,0.4,0.2,0.9,0.1,1.4
							c-0.2,1-0.7,1.9-1.5,2.6c-0.9,0.7-1.3,0.5-2.3-0.1c-0.4,0.3-0.3,1.4-0.4,1.8c-0.1,0.7-0.4,1.4-0.8,2c-0.2,0.3-0.4,0.7-0.6,1
							c-0.4,0.5-0.3,0.5-0.9,0.3c-0.5-0.2-1.8-0.6-1.7-1.2c0-0.6,1.1-1.4,1.4-1.9c0.4-0.6,0.8-1.2,1.1-1.9c0.3-0.6,0.4-1.3,0.5-1.9
							C42.3,33.5,42.1,32.5,42.6,32z"/>
						<path class="st20" d="M16.9,17.1c-1.7,0-4.3,0.4-4.6,2.3c-0.3,2,2.4,2.9,3.9,2.9c1.9,0,4.6-0.4,4.8-2.6
							C21.1,17.6,18.5,17.1,16.9,17.1z"/>
						<path class="st12" d="M6.9,23.3c-0.1-0.7,0.3-1.4,0.9-1.6c3.4-1.4,6.5,1.6,7.7,2.6c1.3,1.1,3.2,3.2,4.5,4.3
							c1.3,1.2,2.6,2.3,4.1,3.3c2.8,1.9,5.6,3.3,8.6,4.9l0.1,0.1c1.3,0.7,2.6,1.2,3.9,1.8l2.7,1.4c0.5,0.2,1.6,1,1.5,1.6
							c-0.8-0.3-1.6-0.7-2.3-1.1c-4.7-2.3-7.6-2.9-12.2-5.4c-2.9-1.6-5.5-3.6-7.9-5.9c-1.3-1.2-2.7-2.5-4-3.8c-1-1.1-2.2-2-3.6-2.4
							c-0.2-0.1-0.4-0.1-0.6-0.1C9.2,22.7,8,22.8,6.9,23.3z"/>
						<path class="st14" d="M32.1,38.7c0.4,0.8,3.1,1.4,3.9,1.5c1.1,0.1,2.3,0.3,3.4,0.6c0.5,0.1,1,0.4,1.3,0.8
							c0.5,0.7,0.1,0.7-0.3,1.3c-0.3,0.5-0.1,0.8-0.3,1.2c-0.1,0.2-0.5,0.1-0.6,0.3c-0.2,0.2,0,0.5-0.1,0.7
							c-1.1,1.8-3.3,1.9-5.2,1.3c-1-0.4-1.9-1-2.7-1.8c-0.8-0.8-1.9-1.2-2.8-2c-1.3-1.1-0.8-1.9,0.3-3C29.9,39,31.3,38.1,32.1,38.7z
							"/>
						<path class="st19" d="M27,37.2l-0.9,5.2l1.9,2.9c2,0.5,2.5-0.8,2.5-0.8c1-2.3,2.4-5.2,2.4-5.2C32,38.4,31,37.6,30,36.9
							c-1.9-1.3-4-2.3-6.2-3L27,37.2z"/>
						<path class="st21" d="M16.8,17.7c-1.3,0-3.4,0.3-3.7,1.5c-0.3,1.3,1.9,1.9,3.1,1.9c1.5,0,3.7-0.3,3.8-1.7
							C20.2,18,18.1,17.7,16.8,17.7z"/>
						<path class="st12" d="M16.6,19.4c-0.7,0-1.7,0.1-1.9,0.7c-0.1,0.6,1,0.9,1.6,0.9c0.8,0,1.9-0.1,1.9-0.8
							C18.4,19.6,17.3,19.4,16.6,19.4z"/>
						<g transform="translate(37.237 0.748)">
							<path class="st18" d="M2.3,2.2C3.9,1.4,5.7,1,7.6,1c2.1,0,4.2,0.4,6.1,1.3c1.7,0.8,3.8,2.1,3.9,4.2c0,1.2-0.7,2.4-1.7,3.1
								c-1.5,0.8-3.4,0.9-5,0.2C8.7,9.2,6.4,8.9,4.2,8.9c0,0-4.2,0-4.2-3.2C0,4.2,0.9,2.8,2.3,2.2z"/>
							<path class="st22" d="M3.5,2.9C4.8,2.3,6.3,2,7.8,2.1c1.7,0,3.4,0.3,5,1c1.4,0.6,3.1,1.6,3.2,3.1c0,0.9-0.5,1.8-1.3,2.2
								c-1.3,0.6-2.7,0.6-4,0.1C8.8,8.2,6.9,7.9,5.1,7.9c0,0-3.4,0-3.4-2.4C1.7,4.3,2.4,3.3,3.5,2.9z"/>
						</g>
					</g>
				</g>
			</g>
		</g>
	</g>
</g>
<rect class="st23" width="242" height="68"/>
</svg>
