<?xml version="1.0" encoding="utf-8"?>
<!-- Generator: Adobe Illustrator 25.2.0, SVG Export Plug-In . SVG Version: 6.00 Build 0)  -->
<svg version="1.1" id="레이어_1" xmlns="http://www.w3.org/2000/svg" xmlns:xlink="http://www.w3.org/1999/xlink" x="0px"
	 y="0px" viewBox="0 0 24 30" style="enable-background:new 0 0 24 30;" xml:space="preserve">
<style type="text/css">
	.st0{fill:#666666;}
	.st1{fill:none;}
</style>
<g transform="translate(-118.327 -944.514)">
	<g transform="translate(119.077 953.409)">
		<path class="st0" d="M10,20.2c-5.5,0-10-4.5-10-10c0-5.5,4.5-10,10-10c5.5,0,10,4.5,10,10C20,15.7,15.5,20.2,10,20.2z M10,1.6
			c-4.7,0-8.5,3.8-8.5,8.5c0,4.7,3.8,8.5,8.5,8.5c4.7,0,8.5-3.8,8.5-8.5C18.5,5.4,14.7,1.6,10,1.6z"/>
		<path class="st0" d="M4.9,10.9c-0.4,0-0.8-0.3-0.8-0.8c0-3.2,2.6-5.8,5.8-5.8c0.4,0,0.8,0.3,0.8,0.8S10.4,5.8,10,5.8
			c-2.4,0-4.3,1.9-4.3,4.3C5.7,10.5,5.3,10.9,4.9,10.9z"/>
	</g>
	<path class="st0" d="M129.1,954.5c-0.4,0-0.8-0.3-0.8-0.8v-4.8c0-0.4,0.3-0.8,0.8-0.8s0.8,0.3,0.8,0.8v4.8
		C129.8,954.1,129.5,954.5,129.1,954.5z"/>
	<g transform="translate(129.822 945.311)">
		<path class="st0" d="M3.4,7.3c-1,0-2-0.2-3-0.6l-0.7-0.3L0,5.8c1.8-4.4,6.7-6.7,11.3-5.1L12,0.9l-0.3,0.7
			c-0.8,2.2-2.5,3.9-4.6,4.8C6,7,4.7,7.3,3.4,7.3z M1.8,5.6C3.3,6,5,5.8,6.5,5.1l0.1,0C8,4.4,9.3,3.3,10,1.8
			C6.7,1.1,3.3,2.6,1.8,5.6z"/>
	</g>
</g>
<rect class="st1" width="24" height="30"/>
</svg>
