<?xml version="1.0" encoding="utf-8"?>
<!-- Generator: Adobe Illustrator 25.2.0, SVG Export Plug-In . SVG Version: 6.00 Build 0)  -->
<svg version="1.1" id="레이어_1" xmlns="http://www.w3.org/2000/svg" xmlns:xlink="http://www.w3.org/1999/xlink" x="0px"
	 y="0px" viewBox="0 0 26 30" style="enable-background:new 0 0 26 30;" xml:space="preserve">
<style type="text/css">
	.st0{fill:#FFFFFF;stroke:#666666;}
	.st1{fill:none;stroke:#666666;stroke-width:1.5;stroke-linecap:round;stroke-linejoin:round;}
	.st2{fill:none;}
</style>
<g transform="translate(-347.42 -339.824)">
	<path class="st0" d="M368.4,349.9c-0.3,0.3-0.8,0.4-1.1,0.1s-0.4-0.8-0.1-1.1c0.3-0.3,0.8-0.4,1.1-0.1
		C368.7,349.1,368.7,349.6,368.4,349.9z"/>
	<path class="st1" d="M371.2,346c0,0,0,9.8-7.2,10.2s-6.5,5.3-5.1,6.2l3.6-0.7l-4.3,5.4l-0.4-3.2c0,0-6,0-5.8-6.5
		S364.4,346.9,371.2,346z"/>
	<path class="st1" d="M371.2,346c0,0,2.6-4.3-2.6-3.3s-18,4.6-19.5,12.7"/>
	<path class="st1" d="M362,348.6c0,0-2.6,4.7,2,7.6"/>
	<path class="st1" d="M356.4,363.8c0.9-0.2,1.8-0.7,2.4-1.4"/>
	<path class="st1" d="M351.9,357.5c0,0,1.5,2.8,6.2,1.6"/>
	<path class="st1" d="M355.9,352.2c0,0,0.3,4.2,3.6,5"/>
	<path class="st1" d="M363.4,356.5c0,0,3.8,0.7,1.6,3.1"/>
	<path class="st1" d="M365.1,355.7c0,0,3.3,0.8,1.7,3.6"/>
	<path class="st1" d="M361.6,356.9c0,0,3.8,0.7,1.6,3.1"/>
</g>
<rect class="st2" width="26" height="30"/>
</svg>
