<?xml version="1.0" encoding="utf-8"?>
<!-- Generator: Adobe Illustrator 25.2.0, SVG Export Plug-In . SVG Version: 6.00 Build 0)  -->
<svg version="1.1" id="레이어_1" xmlns="http://www.w3.org/2000/svg" xmlns:xlink="http://www.w3.org/1999/xlink" x="0px"
	 y="0px" viewBox="0 0 34 30" style="enable-background:new 0 0 34 30;" xml:space="preserve">
<style type="text/css">
	.st0{fill:#222222;}
	.st1{fill:none;stroke:#222222;stroke-width:1.5;stroke-linecap:round;stroke-linejoin:round;}
	.st2{fill:none;}
</style>
<g transform="translate(-341.045 -447.461)">
	<g transform="translate(344.81 457.265)">
		<path class="st0" d="M1.6,7.2C1.4,7.5,1,7.5,0.8,7.3c-0.3-0.2-0.3-0.6,0-0.9c0.2-0.3,0.6-0.3,0.9,0C1.9,6.6,1.9,7,1.6,7.2
			C1.6,7.2,1.6,7.2,1.6,7.2z"/>
		<path class="st0" d="M4.1,7.2c-0.2,0.3-0.6,0.3-0.9,0C3,7.1,2.9,6.7,3.2,6.4c0.2-0.3,0.6-0.3,0.9,0C4.3,6.6,4.3,7,4.1,7.2
			C4.1,7.2,4.1,7.2,4.1,7.2z"/>
	</g>
	<g transform="translate(346.053 459.758)">
		<path class="st0" d="M1.6,7.2C1.4,7.5,1,7.5,0.8,7.3c-0.3-0.2-0.3-0.6,0-0.9c0.2-0.3,0.6-0.3,0.9,0C1.9,6.6,1.9,7,1.6,7.2
			C1.6,7.2,1.6,7.2,1.6,7.2z"/>
	</g>
	<path class="st1" d="M362.4,458.6c-1.6-1.3-5.3-3.7-9.7-2.9c-6.9,1.2-10.4,7.1-10.3,8.7s-1,6.4,12.9,6.1s15.5-0.3,15.6-4.4
		c0.1-2.3-1.5-3-3.3-3.8"/>
	<path class="st1" d="M368.5,459.6c-1.7,6.7-9.2,7.4-9.7,3c-0.6-5.1,8.5-4.6,8.5-4.6l2.2-1.2c-0.2-0.9,0.2-1.8,1-2.2
		c1.4-0.6,2.1,1,1.5,1.6c0.7-0.2,1.4,0.2,1.6,0.9c0,0.2,0.1,0.3,0,0.5c0,1.7-3.3,0.8-3.3,0.8L368.5,459.6z"/>
</g>
<rect class="st2" width="34" height="30"/>
</svg>
