<?xml version="1.0" encoding="utf-8"?>
<!-- Generator: Adobe Illustrator 25.2.0, SVG Export Plug-In . SVG Version: 6.00 Build 0)  -->
<svg version="1.1" id="레이어_1" xmlns="http://www.w3.org/2000/svg" xmlns:xlink="http://www.w3.org/1999/xlink" x="0px"
	 y="0px" viewBox="0 0 28 30" style="enable-background:new 0 0 28 30;" xml:space="preserve">
<style type="text/css">
	.st0{fill:#666666;}
	.st1{fill:none;}
</style>
<g transform="translate(-455.965 -646.133)">
	<path class="st0" d="M478.9,671.2H461c-2.3,0-4.2-1.9-4.2-4.2v-6.7c0-2.3,1.9-4.2,4.2-4.2h17.9c2.3,0,4.2,1.9,4.2,4.2v6.7
		C483.1,669.4,481.2,671.2,478.9,671.2z M461,657.7c-1.5,0-2.7,1.2-2.7,2.7v6.7c0,1.5,1.2,2.7,2.7,2.7h17.9c1.5,0,2.7-1.2,2.7-2.7
		v-6.7c0-1.5-1.2-2.7-2.7-2.7H461z"/>
	<path class="st0" d="M481.5,658.1c-0.2,0-0.4-0.1-0.5-0.2l-6-5.3l-15.9,5.1c-0.4,0.1-0.8-0.1-0.9-0.5c-0.1-0.4,0.1-0.8,0.5-0.9
		l16.3-5.2c0.2-0.1,0.5,0,0.7,0.2l6.3,5.6c0.3,0.3,0.3,0.7,0.1,1.1C481.9,658,481.7,658.1,481.5,658.1z"/>
	<path class="st0" d="M480.1,668.7c-0.3,0-0.6,0-0.9-0.1c-1.2-0.2-2.3-0.9-3-1.9c-1.5-2.1-0.9-5,1.2-6.5c1.5-1.1,3.6-1.1,5.2-0.1
		c0.3,0.2,0.5,0.7,0.2,1c-0.2,0.3-0.7,0.5-1,0.2c-1.1-0.7-2.5-0.7-3.5,0.1c-1.4,1-1.8,3-0.8,4.4c0.5,0.7,1.2,1.2,2,1.3
		c0.8,0.2,1.7,0,2.4-0.5c0.3-0.2,0.8-0.1,1,0.2s0.1,0.8-0.2,1C482,668.4,481,668.7,480.1,668.7z"/>
	<path class="st0" d="M466.3,671.2C466.3,671.2,466.3,671.2,466.3,671.2c-0.4,0-0.8-0.3-0.8-0.8c0-2.6,2.1-4.6,4.7-4.6
		c0,0,0,0,0.1,0c2.5,0,4.6,2.1,4.6,4.6c0,0.4-0.3,0.8-0.7,0.8c-0.4,0-0.8-0.3-0.8-0.7c0-1.7-1.4-3.1-3.1-3.1c0,0,0,0-0.1,0
		c-1.7,0-3.1,1.4-3.2,3.1C467.1,670.8,466.7,671.2,466.3,671.2z"/>
	<path class="st0" d="M465.7,662.6c-2.2,0-4.1-1.5-4.6-3.7c-0.1-0.6-0.1-1.2,0-1.7c0.1-0.4,0.5-0.7,0.9-0.6c0.4,0.1,0.7,0.5,0.6,0.9
		c-0.1,0.4-0.1,0.8,0,1.2c0.4,1.7,2,2.8,3.8,2.5c1.7-0.4,2.8-2,2.5-3.8c-0.1-0.4,0.2-0.8,0.6-0.9c0.4-0.1,0.8,0.2,0.9,0.6
		c0.5,2.5-1.1,5-3.6,5.5C466.4,662.6,466,662.6,465.7,662.6z"/>
	<path class="st0" d="M460.7,671.2c-0.1,0-0.3,0-0.4-0.1c-0.3-0.2-0.4-0.7-0.2-1c0.3-0.5,0.5-1,0.5-1.5c0.1-1.7-1.2-3.3-2.9-3.4
		c-0.4,0-0.7-0.4-0.7-0.8c0-0.4,0.4-0.7,0.8-0.7c2.6,0.2,4.5,2.4,4.3,5c-0.1,0.8-0.3,1.6-0.8,2.3C461.1,671,460.9,671.2,460.7,671.2
		z"/>
</g>
<rect class="st1" width="28" height="30"/>
</svg>
