<?xml version="1.0" encoding="utf-8"?>
<!-- Generator: Adobe Illustrator 25.2.0, SVG Export Plug-In . SVG Version: 6.00 Build 0)  -->
<svg version="1.1" id="레이어_1" xmlns="http://www.w3.org/2000/svg" xmlns:xlink="http://www.w3.org/1999/xlink" x="0px"
	 y="0px" viewBox="0 0 50 50" style="enable-background:new 0 0 50 50;" xml:space="preserve">
<style type="text/css">
	.st0{fill:#FF4C33;}
	.st1{fill:#FFFFFF;}
</style>
<g transform="translate(1.5 1.5)">
	<g transform="matrix(1, 0, 0, 1, -1.5, -1.5)">
		<path class="st0" d="M0,25C0,11.6,10.5,0.6,23.8,0l0,0H50l-8.8,5.9C46.8,10.7,50,17.7,50,25c0,13.8-11.2,25-25,25S0,38.8,0,25z"/>
	</g>
	<g transform="translate(-533.526 -763.305)">
		<path class="st1" d="M564.2,793.7c0.6,0,1-0.5,1-1c0-0.4-0.2-0.7-0.6-0.9l-5.7-2.8l-1.9-5.8c-0.2-0.5-0.8-0.8-1.3-0.6
			c-0.5,0.2-0.8,0.7-0.6,1.2l2.1,6.2c0.1,0.3,0.3,0.5,0.5,0.6l6.1,3C563.9,793.6,564.1,793.7,564.2,793.7z"/>
		<path class="st1" d="M545.4,783c-1.7-1.5-1.9-4.1-0.4-5.7s4.1-1.9,5.7-0.4c0.1,0.1,0.3,0.2,0.4,0.4c0.4,0.4,1,0.5,1.4,0.1
			s0.5-1,0.1-1.4c-2.2-2.5-6.1-2.7-8.6-0.5c-2.5,2.2-2.7,6.1-0.5,8.6c0.2,0.2,0.3,0.3,0.5,0.5c0.4,0.4,1.1,0.3,1.4-0.1
			S545.9,783.3,545.4,783z"/>
		<path class="st1" d="M568.1,773.8c-1.8,0-3.4,0.8-4.6,2.1c-0.4,0.4-0.3,1.1,0.1,1.4s1.1,0.3,1.4-0.1c1.5-1.7,4.1-1.9,5.7-0.4
			s1.9,4.1,0.4,5.7c-0.1,0.1-0.2,0.3-0.4,0.4c-0.4,0.4-0.5,1-0.1,1.4s1,0.5,1.4,0.1c2.5-2.2,2.8-6.1,0.6-8.6
			C571.5,774.6,569.8,773.8,568.1,773.8z"/>
		<path class="st1" d="M558.2,776.7c-7.1,0-12.9,5.8-12.9,12.9c0,7.1,5.8,12.9,12.9,12.9c0,0,0,0,0,0c0.6,0,1-0.5,1-1s-0.5-1-1-1
			c-6,0-10.9-4.9-10.9-10.9c0-6,4.9-10.9,10.9-10.9c6,0,10.9,4.9,10.9,10.9c0,4.1-2.3,7.8-5.9,9.7c-0.5,0.3-0.7,0.9-0.4,1.4
			c0.3,0.5,0.9,0.7,1.3,0.4c6.4-3.2,8.9-11,5.6-17.4C567.5,779.5,563,776.7,558.2,776.7L558.2,776.7z"/>
	</g>
</g>
</svg>
